HIERARCHY
ROOT Hips
{
	OFFSET -0.0000 0.0000 0.0000
	CHANNELS 6 Xposition Yposition Zposition Zrotation Xrotation Yrotation
	JOINT LeftUpperLeg
	{
		OFFSET -5.2299 -9.3936 -2.7607
		CHANNELS 3 Zrotation Xrotation Yrotation
		JOINT LeftLowerLeg
		{
			OFFSET -5.8867 -41.6441 -0.6557
			CHANNELS 3 Zrotation Xrotation Yrotation
			JOINT LeftFoot
			{
				OFFSET 4.1738 -43.7584 -2.9512
				CHANNELS 3 Zrotation Xrotation Yrotation
				JOINT LeftToe
				{
					OFFSET -4.9294 -6.5279 12.6259
					CHANNELS 3 Zrotation Xrotation Yrotation
					End Site
					{
						OFFSET 0.0000 5.0000 0.0000
					}
				}
			}
		}
	}
	JOINT RightUpperLeg
	{
		OFFSET 5.7193 -10.6548 -2.2218
		CHANNELS 3 Zrotation Xrotation Yrotation
		JOINT RightLowerLeg
		{
			OFFSET 4.8074 -39.7560 -1.4061
			CHANNELS 3 Zrotation Xrotation Yrotation
			JOINT RightFoot
			{
				OFFSET -1.4489 -44.6852 -1.8030
				CHANNELS 3 Zrotation Xrotation Yrotation
				JOINT RightToe
				{
					OFFSET 4.0575 -6.5287 12.7076
					CHANNELS 3 Zrotation Xrotation Yrotation
					End Site
					{
						OFFSET 0.0000 5.0000 0.0000
					}
				}
			}
		}
	}
	JOINT Spine
	{
		OFFSET -0.0000 11.2930 0.0000
		CHANNELS 3 Zrotation Xrotation Yrotation
		JOINT Spine1
		{
			OFFSET -0.0000 14.5636 0.0000
			CHANNELS 3 Zrotation Xrotation Yrotation
			JOINT Spine2
			{
				OFFSET -0.0000 5.6082 0.0000
				CHANNELS 3 Zrotation Xrotation Yrotation
				JOINT Neck
				{
					OFFSET -0.0000 17.1365 0.0000
					CHANNELS 3 Zrotation Xrotation Yrotation
					JOINT Head
					{
						OFFSET -2.4654 17.5391 2.4463
						CHANNELS 3 Zrotation Xrotation Yrotation
						End Site
						{
							OFFSET 0.0000 5.0000 0.0000
						}
					}
				}
				JOINT LeftShoulder
				{
					OFFSET -4.7725 8.7643 -0.8375
					CHANNELS 3 Zrotation Xrotation Yrotation
					JOINT LeftUpperArm
					{
						OFFSET -12.6285 5.7680 -1.3885
						CHANNELS 3 Zrotation Xrotation Yrotation
						JOINT LeftLowerArm
						{
							OFFSET -27.2907 -6.9853 -3.9094
							CHANNELS 3 Zrotation Xrotation Yrotation
							JOINT LeftHand
							{
								OFFSET -27.6174 2.1254 -0.2478
								CHANNELS 3 Zrotation Xrotation Yrotation
								End Site
								{
									OFFSET 0.0000 5.0000 0.0000
								}
							}
						}
					}
				}
				JOINT RightShoulder
				{
					OFFSET 4.6636 8.6612 -1.4864
					CHANNELS 3 Zrotation Xrotation Yrotation
					JOINT RightUpperArm
					{
						OFFSET 10.9342 5.3674 -0.9118
						CHANNELS 3 Zrotation Xrotation Yrotation
						JOINT RightLowerArm
						{
							OFFSET 29.2029 -3.5440 -2.4565
							CHANNELS 3 Zrotation Xrotation Yrotation
							JOINT RightHand
							{
								OFFSET 27.1879 -0.4835 -1.6445
								CHANNELS 3 Zrotation Xrotation Yrotation
								End Site
								{
									OFFSET 0.0000 5.0000 0.0000
								}
							}
						}
					}
				}
			}
		}
	}
}
MOTION
Frames: 13
Frame Time: 0.033333
3.091975 99.326302 -2.879253 -7.648326 -4.500176 3.494152 10.474695 16.678414 6.037180 3.298381 1.584202 -2.124776 -6.900946 -6.810117 1.523667 10.971294 -0.323162 0.548120 10.998006 -29.006074 3.065711 -1.493665 3.277402 -1.913382 -18.826474 9.186434 10.988333 1.462648 -7.748870 -6.750313 10.039777 8.841115 0.848174 -8.249783 -0.540876 8.118487 10.175063 12.133346 -4.307912 -3.090491 -14.557362 -2.873852 -1.149536 1.136472 0.570511 -2.230586 1.306395 7.944921 61.199982 6.226043 18.681260 7.375217 -2.485858 23.103598 6.105053 -0.786589 4.097663 -2.155802 -1.396447 -1.656323 -64.387329 31.250623 -13.858476 -3.510734 -0.571213 -26.555173 -6.684043 -17.222790 -2.857577
3.888584 98.521301 0.649342 -7.708897 -4.269377 2.654790 9.890317 19.317747 5.858156 3.053608 1.014313 -1.819484 -6.629478 -7.987990 1.953169 11.264165 -0.573180 0.835878 10.582158 -30.010685 2.652246 -1.847439 5.592333 -1.841857 -17.397599 8.135879 10.110489 1.586344 -7.689763 -6.661168 9.988122 9.018362 0.655615 -8.655185 -0.673350 8.170082 10.649266 12.015342 -4.627767 -3.716280 -15.172648 -2.853850 -1.069734 0.945716 1.011156 -2.063914 1.605066 7.711948 60.939337 6.807573 19.523638 6.839050 -2.269959 22.229660 6.648196 0.398722 4.495376 -3.008260 -1.353599 -1.862435 -64.003749 31.973794 -14.258690 -3.309736 -0.524143 -25.094880 -6.460289 -17.936283 -2.830986
4.856150 97.852081 4.456409 -6.705936 -3.556012 1.800844 7.993585 21.364479 5.471575 2.567645 1.085009 -1.512807 -5.154344 -8.672341 3.151742 10.784534 -1.823257 1.376244 8.817293 -31.031894 1.163322 -2.226062 9.132252 -1.694478 -15.308739 11.269545 9.336846 2.741716 -7.987275 -6.417133 9.037185 8.842877 0.592932 -8.587308 -0.691065 7.907302 10.297567 11.822293 -4.607359 -4.265413 -16.402326 -2.567945 -0.582091 0.932910 1.488615 -0.638430 1.881160 7.661801 59.993300 7.024107 19.820214 6.261483 -1.920939 21.434122 7.194340 1.194549 4.971315 -4.873250 -1.476027 -2.021393 -62.713335 32.361706 -14.565497 -2.757725 -0.091186 -23.022978 -6.231425 -17.784238 -1.676801
5.940033 97.632637 8.632761 -4.642823 -2.287548 0.970233 5.034338 23.092528 5.057797 1.483609 1.057895 -1.005317 -2.120078 -6.574845 4.465470 9.848719 -4.624108 2.320364 5.683299 -32.234691 -1.175638 -2.299662 11.684711 -1.372139 -13.740994 17.723004 9.873284 4.150680 -8.117569 -5.590716 7.260737 8.232294 0.717236 -8.087104 -0.837885 7.531867 8.995103 11.577626 -4.508212 -4.314216 -17.860498 -2.078770 0.036698 0.923128 1.700306 1.436554 1.815425 7.874810 58.928047 7.214268 19.105122 5.864711 -1.569839 20.896045 7.189328 1.874007 5.120386 -6.905727 -1.886668 -2.311271 -61.361120 32.463641 -14.322950 -2.293082 0.517898 -20.644816 -6.423008 -17.745942 -0.041441
6.944296 97.652855 12.886064 -2.658159 -1.150120 0.395480 2.545712 24.484223 4.955119 0.133087 1.611179 -0.387208 1.062283 -1.674479 4.699043 9.201277 -9.206848 3.816527 2.797052 -32.929832 -2.973456 -2.408321 14.173460 -0.920823 -13.058827 21.719823 10.364781 5.192344 -7.618773 -4.697533 5.537758 7.570154 0.890364 -7.526688 -1.405106 7.084071 7.456986 11.528316 -4.336627 -3.953611 -18.924120 -1.799005 0.584239 0.806357 1.822361 2.295861 1.606730 7.725193 59.387673 7.889869 17.820545 5.910877 -1.422831 20.464192 7.189306 2.368549 4.991095 -7.288163 -2.386479 -2.486348 -60.826099 33.490081 -14.252341 -2.300705 0.750106 -18.746835 -6.765086 -17.366479 1.471874
7.843472 98.010345 17.163961 -1.037087 -0.313541 0.298247 0.488156 23.213882 5.356690 -0.301519 6.259486 0.091556 3.311767 5.346597 3.128895 9.508208 -15.953490 6.149450 0.386952 -32.918198 -3.987916 -2.708963 16.721128 -0.326674 -12.050374 22.275490 9.960819 5.874248 -6.385595 -3.976048 4.038532 7.005835 1.082108 -6.706538 -2.306293 6.462893 5.800068 11.790283 -4.180544 -3.396072 -19.741205 -1.633547 0.751590 1.030957 1.811189 2.234238 1.076845 7.394678 61.041839 8.866701 15.973236 6.122648 -1.359709 19.917367 7.459791 2.345353 4.248240 -6.324020 -2.971921 -2.529405 -61.020484 35.044721 -14.377398 -2.615246 1.017589 -17.826227 -7.068818 -16.550079 2.529306
8.671359 98.519501 21.351545 0.364151 0.335467 0.627665 -1.274800 19.404870 5.431918 -0.067020 14.259276 0.593102 5.262123 15.246943 0.892868 10.131371 -22.953205 8.708962 -1.720640 -32.267674 -4.530903 -3.220649 19.080006 0.379807 -10.415283 19.890305 8.327430 6.266818 -4.923312 -3.645499 2.556338 6.467612 1.292420 -5.513026 -3.085901 5.245616 3.959685 12.085552 -3.507581 -2.982183 -20.212271 -2.061871 0.704693 1.347435 1.838259 1.979863 0.414439 6.906833 63.045248 9.708511 13.804061 6.178820 -1.249625 19.300233 7.453639 1.070325 3.414959 -4.857894 -3.401580 -2.708102 -61.150962 36.367653 -14.932082 -3.060386 1.131508 -17.858879 -7.068288 -15.663027 3.422258
9.321815 99.108994 25.340084 1.524362 0.853427 1.140591 -2.723637 13.127723 5.462693 0.498783 25.137695 0.579813 8.628556 25.967072 -2.565291 8.867573 -21.696756 8.462430 -3.472098 -30.919889 -4.668646 -3.721863 20.777088 1.060243 -8.160194 15.477189 6.175938 6.010465 -4.326810 -3.599684 1.051652 6.043851 1.527212 -3.781761 -3.871351 3.673895 2.005959 12.699881 -2.726392 -2.613057 -20.758677 -2.344581 0.453883 1.291261 1.397379 2.099400 -0.198769 6.721745 64.382565 10.199726 11.993456 6.145101 -1.113010 18.546651 7.462150 -0.033118 2.311235 -3.689771 -3.760306 -2.876461 -60.579878 37.320686 -16.066720 -3.188943 1.338957 -18.581345 -7.016574 -14.866001 3.626202
9.826236 99.608688 28.973848 2.660322 1.353181 1.805606 -3.837544 5.224012 5.622467 0.779616 37.040825 0.193784 14.226670 34.626182 -6.941227 5.085047 -9.577233 3.265109 -5.088030 -29.137746 -4.569299 -3.992142 21.287259 1.720915 -6.588520 11.950725 4.066177 5.455942 -3.963867 -3.572348 -0.544679 5.701363 1.545053 -1.823569 -4.508569 2.301628 0.252724 13.492061 -2.218851 -2.669848 -21.361723 -2.666144 0.473375 0.881966 1.166088 2.079308 -0.802616 6.661877 65.307161 10.425410 10.817368 6.168929 -0.818375 18.026998 7.598984 -1.365887 1.625427 -3.009127 -4.094206 -3.206988 -59.043618 37.942379 -17.908234 -3.124544 1.587907 -19.841048 -6.707283 -14.526049 3.533620
10.287968 100.107399 32.339611 3.822388 1.644791 2.904963 -4.922350 -2.840103 5.023208 1.548299 48.049458 0.456362 15.026495 33.892192 -7.837481 4.348779 -5.796830 1.709102 -6.956869 -26.768616 -5.135816 -4.031175 20.911902 2.310827 -5.506237 9.287972 2.488316 4.606790 -3.481726 -3.447335 -2.072260 5.513802 1.193658 0.111824 -4.675915 0.907117 -1.302661 13.914837 -1.803790 -2.944994 -21.445549 -3.146545 0.681289 -0.116892 1.456560 2.000716 -1.113911 6.454724 65.817700 10.726765 10.319083 6.237077 -0.419599 17.845872 7.679181 -2.668088 1.665620 -2.799663 -4.275990 -3.427293 -56.534047 38.402095 -20.627149 -2.930954 1.802065 -21.082188 -5.962683 -14.614977 3.310005
10.812817 100.718033 35.611675 4.811715 1.503496 4.318664 -6.279262 -10.301316 3.378056 2.657994 55.486812 0.569679 13.048837 30.213107 -7.769076 4.170854 -6.350986 2.148318 -8.711405 -23.242824 -6.184905 -3.862502 19.313934 2.832423 -4.498866 7.422074 1.315016 3.606955 -3.050418 -3.353373 -3.343186 5.544681 0.584219 1.996200 -4.287666 -0.371521 -2.610540 13.931877 -1.616538 -3.190462 -21.068454 -3.534103 0.809221 -0.573318 2.001964 1.945896 -1.218745 6.287489 65.908535 11.248151 10.087710 6.304319 -0.129857 18.165475 7.469582 -3.361817 2.179941 -2.784374 -4.208675 -3.498258 -53.780803 38.490862 -23.994351 -2.707593 1.825139 -21.719425 -5.112718 -14.155513 3.223117
11.425058 101.314056 38.991718 5.659656 1.003702 5.913925 -8.116267 -16.664060 0.624526 3.222447 58.468364 0.709860 11.173489 27.808777 -7.985556 3.886095 -6.984629 2.575709 -10.194516 -18.769021 -7.352830 -3.554831 16.940088 3.303535 -3.387380 5.776730 0.188756 2.422842 -2.716206 -3.278616 -4.376346 5.752863 -0.162623 3.713599 -3.519205 -1.603043 -3.636139 13.591264 -1.516657 -3.336367 -20.336339 -3.968632 0.819632 -0.593834 2.711177 1.823824 -1.160884 6.091842 65.838419 11.827455 9.750047 6.367766 0.040485 19.089540 7.101588 -3.448477 2.717256 -2.475609 -4.117309 -3.662629 -51.847932 38.152264 -27.057446 -2.554842 1.668608 -22.137687 -4.526547 -13.073751 3.012723
12.066553 101.773621 42.481529 6.508265 0.337118 7.620862 -10.563037 -21.753936 -3.012457 2.900686 57.700107 1.244010 9.976480 26.092645 -7.890482 3.434354 -7.653585 2.950813 -11.467469 -13.804751 -8.508202 -3.158182 14.224424 3.682070 -2.128052 4.192447 -0.930284 1.055012 -2.480659 -3.177785 -5.317954 6.083573 -0.925027 5.317129 -2.544070 -2.888832 -4.504873 12.968689 -1.381757 -3.399514 -19.478941 -4.409500 0.765387 -0.540733 3.468638 1.747600 -0.936476 5.842230 65.570617 12.309348 9.278475 6.471313 0.155897 20.458843 6.702887 -3.197176 3.072232 -1.949070 -4.056075 -3.925731 -50.792358 37.465924 -29.402432 -2.447314 1.446235 -22.910840 -4.061197 -11.998922 2.532229
